<?xml version="1.0" standalone="no"?><!DOCTYPE svg PUBLIC "-//W3C//DTD SVG 1.1//EN" "http://www.w3.org/Graphics/SVG/1.1/DTD/svg11.dtd"><svg class="icon" width="64px" height="63.08px" viewBox="0 0 1039 1024" version="1.1" xmlns="http://www.w3.org/2000/svg"><path fill="#222222" d="M959.038476 645.444245c-38.753629-55.791677-91.095741-97.645924-151.859663-121.773438 26.837228-18.761296 49.389874-43.874253 65.73719-73.27077 18.957771-33.926694 28.953426-72.582085 28.953426-111.926162 0-122.758881-95.330182-222.569098-212.426087-222.569098-16.644075 0-30.184463 13.541411-30.184463 30.135344s13.541411 30.135344 30.184463 30.135344c83.808778 0 152.007019 72.876798 152.007019 162.29841 0 89.620134-68.199265 162.495908-152.007019 162.495908-16.644075 0-30.184463 13.541411-30.184463 30.136368l0 0.098237c0 16.593933 13.541411 30.135344 30.184463 30.135344 150.726863 0 273.435603 130.440841 273.435603 290.720268 0 16.593933 13.591553 30.087249 30.185486 30.087249 16.643052 0 30.233582-13.493316 30.233582-30.087249C1023.150656 777.1151 1000.993007 705.813171 959.038476 645.444245L959.038476 645.444245 959.038476 645.444245 959.038476 645.444245zM647.24424 594.232886c-31.612998-22.306029-66.180282-40.033785-102.520955-52.540633 76.915787-46.581921 124.137275-129.700991 124.137275-219.911572 0-141.813866-115.668393-257.186524-257.827113-257.186524-142.308123 0-257.975493 115.372657-257.975493 257.334903 0 48.206932 13.591553 95.330182 39.148625 136.151913 21.763676 34.56626 51.210335 63.422472 86.023212 84.250846-37.126572 12.607132-72.039733 30.480198-104.193037 53.1802-35.060517 24.768103-65.73719 54.657854-91.589998 88.831164C28.970822 755.595994 0.657986 840.192717 0.657986 929.269475c0 16.593933 13.589506 30.136368 30.233582 30.136368 16.593933 0 30.184463-13.541411 30.184463-30.136368 0-92.76987 36.341696-180.320878 102.225219-246.303662 65.786309-65.884546 152.794965-102.126982 245.024529-102.225219 3.101641 0.246617 6.155187 0 9.208732-0.639566l2.460028-0.541329c89.816608 1.821485 174.117596 37.915541 238.377132 102.224196 65.884546 65.983807 102.07684 153.435555 102.07684 246.354827 0 16.593933 13.59053 30.085202 30.234605 30.085202 16.593933 0 30.184463-13.491269 30.184463-30.085202 0-89.078805-28.263717-173.723623-81.887009-244.927315C713.128787 648.89074 682.302711 619.002013 647.24424 594.232886L647.24424 594.232886 647.24424 594.232886 647.24424 594.232886zM411.033447 124.865869c108.872616 0 197.555401 88.437192 197.555401 197.063191 0 108.576881-88.683808 197.014072-197.555401 197.014072s-197.555401-88.437192-197.555401-197.014072C213.478046 213.154681 302.160831 124.865869 411.033447 124.865869L411.033447 124.865869 411.033447 124.865869 411.033447 124.865869z" /></svg>