<?xml version="1.0" standalone="no"?><!DOCTYPE svg PUBLIC "-//W3C//DTD SVG 1.1//EN" "http://www.w3.org/Graphics/SVG/1.1/DTD/svg11.dtd"><svg class="icon" width="64px" height="64.00px" viewBox="0 0 1024 1024" version="1.1" xmlns="http://www.w3.org/2000/svg"><path fill="#222222" d="M950.800896 768.016384l0 73.138176q0 14.856192-10.856448 25.71264t-25.71264 10.856448l-804.519936 0q-14.856192 0-25.71264-10.856448t-10.856448-25.71264l0-73.138176q0-14.856192 10.856448-25.71264t25.71264-10.856448l804.519936 0q14.856192 0 25.71264 10.856448t10.856448 25.71264zm0-292.552704l0 73.138176q0 14.856192-10.856448 25.71264t-25.71264 10.856448l-804.519936 0q-14.856192 0-25.71264-10.856448t-10.856448-25.71264l0-73.138176q0-14.856192 10.856448-25.71264t25.71264-10.856448l804.519936 0q14.856192 0 25.71264 10.856448t10.856448 25.71264zm0-292.552704l0 73.138176q0 14.856192-10.856448 25.71264t-25.71264 10.856448l-804.519936 0q-14.856192 0-25.71264-10.856448t-10.856448-25.71264l0-73.138176q0-14.856192 10.856448-25.71264t25.71264-10.856448l804.519936 0q14.856192 0 25.71264 10.856448t10.856448 25.71264z" /></svg>